<mxfile host="www.draw.io" modified="2020-01-02T07:22:37.949Z" agent="Mozilla/5.0 (Macintosh; Intel Mac OS X 10.15; rv:71.0) Gecko/20100101 Firefox/71.0" etag="WfwZVoy1YZKmb0I0Kg54" version="12.4.8" type="github">
  <diagram name="Page-1" id="b5b7bab2-c9e2-2cf4-8b2a-24fd1a2a6d21">
    <mxGraphModel dx="1152" dy="779" grid="1" gridSize="10" guides="1" tooltips="1" connect="1" arrows="1" fold="1" page="1" pageScale="1" pageWidth="827" pageHeight="1169" background="#ffffff" math="0" shadow="0">
      <root>
        <mxCell id="0"/>
        <mxCell id="1" parent="0"/>
        <mxCell id="oL-dDvh2jNY7KV3xMyqO-24" value="Computer" style="swimlane;fontStyle=1;align=center;verticalAlign=top;childLayout=stackLayout;horizontal=1;startSize=26;horizontalStack=0;resizeParent=1;resizeParentMax=0;resizeLast=0;collapsible=1;marginBottom=0;" vertex="1" parent="1">
          <mxGeometry x="560" y="190" width="160" height="138" as="geometry"/>
        </mxCell>
        <mxCell id="oL-dDvh2jNY7KV3xMyqO-28" value="+ cpu: String" style="text;strokeColor=none;fillColor=none;align=left;verticalAlign=top;spacingLeft=4;spacingRight=4;overflow=hidden;rotatable=0;points=[[0,0.5],[1,0.5]];portConstraint=eastwest;" vertex="1" parent="oL-dDvh2jNY7KV3xMyqO-24">
          <mxGeometry y="26" width="160" height="26" as="geometry"/>
        </mxCell>
        <mxCell id="oL-dDvh2jNY7KV3xMyqO-25" value="+ memory: String" style="text;strokeColor=none;fillColor=none;align=left;verticalAlign=top;spacingLeft=4;spacingRight=4;overflow=hidden;rotatable=0;points=[[0,0.5],[1,0.5]];portConstraint=eastwest;" vertex="1" parent="oL-dDvh2jNY7KV3xMyqO-24">
          <mxGeometry y="52" width="160" height="26" as="geometry"/>
        </mxCell>
        <mxCell id="oL-dDvh2jNY7KV3xMyqO-26" value="" style="line;strokeWidth=1;fillColor=none;align=left;verticalAlign=middle;spacingTop=-1;spacingLeft=3;spacingRight=3;rotatable=0;labelPosition=right;points=[];portConstraint=eastwest;" vertex="1" parent="oL-dDvh2jNY7KV3xMyqO-24">
          <mxGeometry y="78" width="160" height="8" as="geometry"/>
        </mxCell>
        <mxCell id="oL-dDvh2jNY7KV3xMyqO-29" value="+ setCpu(): void" style="text;strokeColor=none;fillColor=none;align=left;verticalAlign=top;spacingLeft=4;spacingRight=4;overflow=hidden;rotatable=0;points=[[0,0.5],[1,0.5]];portConstraint=eastwest;" vertex="1" parent="oL-dDvh2jNY7KV3xMyqO-24">
          <mxGeometry y="86" width="160" height="26" as="geometry"/>
        </mxCell>
        <mxCell id="oL-dDvh2jNY7KV3xMyqO-27" value="+ setMemory(): void" style="text;strokeColor=none;fillColor=none;align=left;verticalAlign=top;spacingLeft=4;spacingRight=4;overflow=hidden;rotatable=0;points=[[0,0.5],[1,0.5]];portConstraint=eastwest;" vertex="1" parent="oL-dDvh2jNY7KV3xMyqO-24">
          <mxGeometry y="112" width="160" height="26" as="geometry"/>
        </mxCell>
        <mxCell id="oL-dDvh2jNY7KV3xMyqO-30" value="&lt;p style=&quot;margin: 0px ; margin-top: 4px ; text-align: center&quot;&gt;&lt;i&gt;&amp;lt;&amp;lt;Interface&amp;gt;&amp;gt;&lt;/i&gt;&lt;br&gt;&lt;b&gt;Builder&lt;/b&gt;&lt;/p&gt;&lt;hr size=&quot;1&quot;&gt;&lt;p style=&quot;margin: 0px ; margin-left: 4px&quot;&gt;+ computer: Computer&lt;br&gt;&lt;/p&gt;&lt;hr size=&quot;1&quot;&gt;&lt;p style=&quot;margin: 0px ; margin-left: 4px&quot;&gt;+ setCpu(): void&lt;br&gt;+ setMemory(): void&lt;/p&gt;&lt;p style=&quot;margin: 0px ; margin-left: 4px&quot;&gt;+ getComputer(): Computer&lt;/p&gt;" style="verticalAlign=top;align=left;overflow=fill;fontSize=12;fontFamily=Helvetica;html=1;" vertex="1" parent="1">
          <mxGeometry x="240" y="190" width="190" height="120" as="geometry"/>
        </mxCell>
        <mxCell id="oL-dDvh2jNY7KV3xMyqO-33" value="LowBuilder" style="swimlane;fontStyle=1;align=center;verticalAlign=top;childLayout=stackLayout;horizontal=1;startSize=26;horizontalStack=0;resizeParent=1;resizeParentMax=0;resizeLast=0;collapsible=1;marginBottom=0;" vertex="1" parent="1">
          <mxGeometry x="150" y="390" width="160" height="60" as="geometry"/>
        </mxCell>
        <mxCell id="oL-dDvh2jNY7KV3xMyqO-35" value="" style="line;strokeWidth=1;fillColor=none;align=left;verticalAlign=middle;spacingTop=-1;spacingLeft=3;spacingRight=3;rotatable=0;labelPosition=right;points=[];portConstraint=eastwest;" vertex="1" parent="oL-dDvh2jNY7KV3xMyqO-33">
          <mxGeometry y="26" width="160" height="8" as="geometry"/>
        </mxCell>
        <mxCell id="oL-dDvh2jNY7KV3xMyqO-36" value="+ setCpu(type): type" style="text;strokeColor=none;fillColor=none;align=left;verticalAlign=top;spacingLeft=4;spacingRight=4;overflow=hidden;rotatable=0;points=[[0,0.5],[1,0.5]];portConstraint=eastwest;" vertex="1" parent="oL-dDvh2jNY7KV3xMyqO-33">
          <mxGeometry y="34" width="160" height="26" as="geometry"/>
        </mxCell>
      </root>
    </mxGraphModel>
  </diagram>
</mxfile>
